<mxfile host="app.diagrams.net" agent="Mozilla/5.0 (Windows NT 10.0; Win64; x64) AppleWebKit/537.36 (KHTML, like Gecko) Chrome/134.0.0.0 Safari/537.36" version="26.2.5">
  <diagram name="Page-1" id="5kPkz4Oc2xiB5RgDTIAw">
    <mxGraphModel dx="1044" dy="562" grid="1" gridSize="10" guides="1" tooltips="1" connect="1" arrows="1" fold="1" page="1" pageScale="1" pageWidth="827" pageHeight="1169" math="0" shadow="0">
      <root>
        <mxCell id="0" />
        <mxCell id="1" parent="0" />
        <mxCell id="AfXIsOWokxRNo5Easndm-1" value="Utilisateur" style="text;html=1;align=center;verticalAlign=middle;whiteSpace=wrap;rounded=0;" parent="1" vertex="1">
          <mxGeometry x="140" y="50" width="90" height="30" as="geometry" />
        </mxCell>
        <mxCell id="AfXIsOWokxRNo5Easndm-2" value="UI" style="text;html=1;align=center;verticalAlign=middle;whiteSpace=wrap;rounded=0;" parent="1" vertex="1">
          <mxGeometry x="300" y="50" width="60" height="30" as="geometry" />
        </mxCell>
        <mxCell id="AfXIsOWokxRNo5Easndm-3" value="Control" style="text;html=1;align=center;verticalAlign=middle;whiteSpace=wrap;rounded=0;" parent="1" vertex="1">
          <mxGeometry x="400" y="50" width="60" height="30" as="geometry" />
        </mxCell>
        <mxCell id="AfXIsOWokxRNo5Easndm-4" value="BD" style="text;html=1;align=center;verticalAlign=middle;whiteSpace=wrap;rounded=0;" parent="1" vertex="1">
          <mxGeometry x="530" y="50" width="60" height="30" as="geometry" />
        </mxCell>
        <mxCell id="AfXIsOWokxRNo5Easndm-5" value="" style="endArrow=none;dashed=1;html=1;rounded=0;" parent="1" edge="1">
          <mxGeometry width="50" height="50" relative="1" as="geometry">
            <mxPoint x="180" y="1170.800048828125" as="sourcePoint" />
            <mxPoint x="180" y="90" as="targetPoint" />
          </mxGeometry>
        </mxCell>
        <mxCell id="AfXIsOWokxRNo5Easndm-6" value="" style="endArrow=none;dashed=1;html=1;rounded=0;" parent="1" source="AfXIsOWokxRNo5Easndm-13" edge="1">
          <mxGeometry width="50" height="50" relative="1" as="geometry">
            <mxPoint x="330" y="1160.800048828125" as="sourcePoint" />
            <mxPoint x="329.5" y="90" as="targetPoint" />
          </mxGeometry>
        </mxCell>
        <mxCell id="AfXIsOWokxRNo5Easndm-7" value="" style="endArrow=none;dashed=1;html=1;rounded=0;" parent="1" source="AfXIsOWokxRNo5Easndm-15" edge="1">
          <mxGeometry width="50" height="50" relative="1" as="geometry">
            <mxPoint x="430" y="1161.5999755859375" as="sourcePoint" />
            <mxPoint x="429.5" y="90" as="targetPoint" />
          </mxGeometry>
        </mxCell>
        <mxCell id="AfXIsOWokxRNo5Easndm-8" value="" style="endArrow=none;dashed=1;html=1;rounded=0;" parent="1" source="AfXIsOWokxRNo5Easndm-21" edge="1">
          <mxGeometry width="50" height="50" relative="1" as="geometry">
            <mxPoint x="560" y="1160.7999267578125" as="sourcePoint" />
            <mxPoint x="559.5" y="90" as="targetPoint" />
          </mxGeometry>
        </mxCell>
        <mxCell id="AfXIsOWokxRNo5Easndm-11" style="edgeStyle=orthogonalEdgeStyle;rounded=0;orthogonalLoop=1;jettySize=auto;html=1;exitX=1;exitY=0.25;exitDx=0;exitDy=0;entryX=0;entryY=0.25;entryDx=0;entryDy=0;" parent="1" source="AfXIsOWokxRNo5Easndm-9" target="AfXIsOWokxRNo5Easndm-10" edge="1">
          <mxGeometry relative="1" as="geometry" />
        </mxCell>
        <mxCell id="AfXIsOWokxRNo5Easndm-9" value="" style="rounded=0;whiteSpace=wrap;html=1;" parent="1" vertex="1">
          <mxGeometry x="170" y="130" width="20" height="260" as="geometry" />
        </mxCell>
        <mxCell id="AfXIsOWokxRNo5Easndm-10" value="" style="rounded=0;whiteSpace=wrap;html=1;" parent="1" vertex="1">
          <mxGeometry x="320" y="130" width="20" height="60" as="geometry" />
        </mxCell>
        <mxCell id="AfXIsOWokxRNo5Easndm-12" value="GÃ©rer mes locations&amp;nbsp;" style="text;html=1;align=center;verticalAlign=middle;whiteSpace=wrap;rounded=0;" parent="1" vertex="1">
          <mxGeometry x="200" y="110" width="100" height="70" as="geometry" />
        </mxCell>
        <mxCell id="AfXIsOWokxRNo5Easndm-14" value="" style="endArrow=none;dashed=1;html=1;rounded=0;" parent="1" source="AfXIsOWokxRNo5Easndm-29" target="AfXIsOWokxRNo5Easndm-13" edge="1">
          <mxGeometry width="50" height="50" relative="1" as="geometry">
            <mxPoint x="330" y="1160.800048828125" as="sourcePoint" />
            <mxPoint x="329.5" y="90" as="targetPoint" />
          </mxGeometry>
        </mxCell>
        <mxCell id="AfXIsOWokxRNo5Easndm-17" style="edgeStyle=orthogonalEdgeStyle;rounded=0;orthogonalLoop=1;jettySize=auto;html=1;exitX=1;exitY=0.25;exitDx=0;exitDy=0;entryX=0;entryY=0.25;entryDx=0;entryDy=0;" parent="1" source="AfXIsOWokxRNo5Easndm-13" target="AfXIsOWokxRNo5Easndm-15" edge="1">
          <mxGeometry relative="1" as="geometry" />
        </mxCell>
        <mxCell id="AfXIsOWokxRNo5Easndm-13" value="" style="rounded=0;whiteSpace=wrap;html=1;" parent="1" vertex="1">
          <mxGeometry x="320" y="200" width="20" height="20" as="geometry" />
        </mxCell>
        <mxCell id="AfXIsOWokxRNo5Easndm-16" value="" style="endArrow=none;dashed=1;html=1;rounded=0;" parent="1" source="AfXIsOWokxRNo5Easndm-19" target="AfXIsOWokxRNo5Easndm-15" edge="1">
          <mxGeometry width="50" height="50" relative="1" as="geometry">
            <mxPoint x="430" y="1161.5999755859375" as="sourcePoint" />
            <mxPoint x="429.5" y="90" as="targetPoint" />
          </mxGeometry>
        </mxCell>
        <mxCell id="AfXIsOWokxRNo5Easndm-15" value="" style="rounded=0;whiteSpace=wrap;html=1;" parent="1" vertex="1">
          <mxGeometry x="420" y="200" width="20" height="20" as="geometry" />
        </mxCell>
        <mxCell id="AfXIsOWokxRNo5Easndm-18" value="envoyer commande" style="text;html=1;align=center;verticalAlign=middle;whiteSpace=wrap;rounded=0;" parent="1" vertex="1">
          <mxGeometry x="340" y="150" width="80" height="50" as="geometry" />
        </mxCell>
        <mxCell id="AfXIsOWokxRNo5Easndm-20" value="" style="endArrow=none;dashed=1;html=1;rounded=0;" parent="1" source="AfXIsOWokxRNo5Easndm-27" target="AfXIsOWokxRNo5Easndm-19" edge="1">
          <mxGeometry width="50" height="50" relative="1" as="geometry">
            <mxPoint x="430" y="1161.5999755859375" as="sourcePoint" />
            <mxPoint x="430" y="220" as="targetPoint" />
          </mxGeometry>
        </mxCell>
        <mxCell id="AfXIsOWokxRNo5Easndm-23" style="edgeStyle=orthogonalEdgeStyle;rounded=0;orthogonalLoop=1;jettySize=auto;html=1;exitX=1;exitY=0.25;exitDx=0;exitDy=0;entryX=0;entryY=0.25;entryDx=0;entryDy=0;" parent="1" source="AfXIsOWokxRNo5Easndm-19" target="AfXIsOWokxRNo5Easndm-21" edge="1">
          <mxGeometry relative="1" as="geometry" />
        </mxCell>
        <mxCell id="AfXIsOWokxRNo5Easndm-19" value="" style="rounded=0;whiteSpace=wrap;html=1;" parent="1" vertex="1">
          <mxGeometry x="420" y="230" width="20" height="130" as="geometry" />
        </mxCell>
        <mxCell id="AfXIsOWokxRNo5Easndm-22" value="" style="endArrow=none;dashed=1;html=1;rounded=0;" parent="1" target="AfXIsOWokxRNo5Easndm-21" edge="1">
          <mxGeometry width="50" height="50" relative="1" as="geometry">
            <mxPoint x="560" y="1160.7999267578125" as="sourcePoint" />
            <mxPoint x="559.5" y="90" as="targetPoint" />
          </mxGeometry>
        </mxCell>
        <mxCell id="AfXIsOWokxRNo5Easndm-25" style="edgeStyle=orthogonalEdgeStyle;rounded=0;orthogonalLoop=1;jettySize=auto;html=1;exitX=0;exitY=0.75;exitDx=0;exitDy=0;entryX=1;entryY=0.75;entryDx=0;entryDy=0;dashed=1;endArrow=open;endFill=0;" parent="1" source="AfXIsOWokxRNo5Easndm-21" target="AfXIsOWokxRNo5Easndm-19" edge="1">
          <mxGeometry relative="1" as="geometry" />
        </mxCell>
        <mxCell id="AfXIsOWokxRNo5Easndm-21" value="" style="rounded=0;whiteSpace=wrap;html=1;" parent="1" vertex="1">
          <mxGeometry x="550" y="230" width="20" height="130" as="geometry" />
        </mxCell>
        <mxCell id="AfXIsOWokxRNo5Easndm-24" value="Demander locations" style="text;html=1;align=center;verticalAlign=middle;whiteSpace=wrap;rounded=0;" parent="1" vertex="1">
          <mxGeometry x="450" y="220" width="80" height="50" as="geometry" />
        </mxCell>
        <mxCell id="AfXIsOWokxRNo5Easndm-26" value="envoyer locations" style="text;html=1;align=center;verticalAlign=middle;whiteSpace=wrap;rounded=0;" parent="1" vertex="1">
          <mxGeometry x="450" y="290" width="100" height="60" as="geometry" />
        </mxCell>
        <mxCell id="AfXIsOWokxRNo5Easndm-28" value="" style="endArrow=none;dashed=1;html=1;rounded=0;" parent="1" source="AfXIsOWokxRNo5Easndm-52" target="AfXIsOWokxRNo5Easndm-27" edge="1">
          <mxGeometry width="50" height="50" relative="1" as="geometry">
            <mxPoint x="430" y="1161.5999755859375" as="sourcePoint" />
            <mxPoint x="430" y="360" as="targetPoint" />
          </mxGeometry>
        </mxCell>
        <mxCell id="AfXIsOWokxRNo5Easndm-27" value="" style="rounded=0;whiteSpace=wrap;html=1;" parent="1" vertex="1">
          <mxGeometry x="420" y="370" width="20" height="20" as="geometry" />
        </mxCell>
        <mxCell id="AfXIsOWokxRNo5Easndm-30" value="" style="endArrow=none;dashed=1;html=1;rounded=0;" parent="1" target="AfXIsOWokxRNo5Easndm-29" edge="1">
          <mxGeometry width="50" height="50" relative="1" as="geometry">
            <mxPoint x="330" y="1160.800048828125" as="sourcePoint" />
            <mxPoint x="330" y="220" as="targetPoint" />
          </mxGeometry>
        </mxCell>
        <mxCell id="AfXIsOWokxRNo5Easndm-29" value="" style="rounded=0;whiteSpace=wrap;html=1;" parent="1" vertex="1">
          <mxGeometry x="320" y="370" width="20" height="20" as="geometry" />
        </mxCell>
        <mxCell id="AfXIsOWokxRNo5Easndm-35" style="edgeStyle=orthogonalEdgeStyle;rounded=0;orthogonalLoop=1;jettySize=auto;html=1;exitX=0;exitY=0.25;exitDx=0;exitDy=0;entryX=1;entryY=0.25;entryDx=0;entryDy=0;dashed=1;endArrow=open;endFill=0;" parent="1" source="AfXIsOWokxRNo5Easndm-27" target="AfXIsOWokxRNo5Easndm-29" edge="1">
          <mxGeometry relative="1" as="geometry">
            <mxPoint x="430" y="388" as="sourcePoint" />
            <mxPoint x="320" y="388" as="targetPoint" />
          </mxGeometry>
        </mxCell>
        <mxCell id="AfXIsOWokxRNo5Easndm-36" value="afficher locations" style="text;html=1;align=center;verticalAlign=middle;whiteSpace=wrap;rounded=0;" parent="1" vertex="1">
          <mxGeometry x="340" y="330" width="80" height="60" as="geometry" />
        </mxCell>
        <mxCell id="AfXIsOWokxRNo5Easndm-37" value="ALT&amp;nbsp;" style="shape=umlFrame;whiteSpace=wrap;html=1;pointerEvents=0;width=56;height=30;" parent="1" vertex="1">
          <mxGeometry x="60" y="400" width="600" height="300" as="geometry" />
        </mxCell>
        <mxCell id="AfXIsOWokxRNo5Easndm-38" value="[Modifier/supprimer/ajouter]" style="text;html=1;align=center;verticalAlign=middle;whiteSpace=wrap;rounded=0;" parent="1" vertex="1">
          <mxGeometry x="230" y="400" width="60" height="30" as="geometry" />
        </mxCell>
        <mxCell id="AfXIsOWokxRNo5Easndm-40" style="edgeStyle=orthogonalEdgeStyle;rounded=0;orthogonalLoop=1;jettySize=auto;html=1;exitX=1;exitY=0.25;exitDx=0;exitDy=0;entryX=0;entryY=0.25;entryDx=0;entryDy=0;" parent="1" source="AfXIsOWokxRNo5Easndm-41" target="AfXIsOWokxRNo5Easndm-42" edge="1">
          <mxGeometry relative="1" as="geometry" />
        </mxCell>
        <mxCell id="AfXIsOWokxRNo5Easndm-41" value="" style="rounded=0;whiteSpace=wrap;html=1;" parent="1" vertex="1">
          <mxGeometry x="320" y="450" width="20" height="20" as="geometry" />
        </mxCell>
        <mxCell id="AfXIsOWokxRNo5Easndm-42" value="" style="rounded=0;whiteSpace=wrap;html=1;" parent="1" vertex="1">
          <mxGeometry x="420" y="450" width="20" height="20" as="geometry" />
        </mxCell>
        <mxCell id="AfXIsOWokxRNo5Easndm-43" value="envoyer commande" style="text;html=1;align=center;verticalAlign=middle;whiteSpace=wrap;rounded=0;" parent="1" vertex="1">
          <mxGeometry x="340" y="400" width="80" height="50" as="geometry" />
        </mxCell>
        <mxCell id="AfXIsOWokxRNo5Easndm-44" style="edgeStyle=orthogonalEdgeStyle;rounded=0;orthogonalLoop=1;jettySize=auto;html=1;exitX=1;exitY=0.25;exitDx=0;exitDy=0;entryX=0;entryY=0.25;entryDx=0;entryDy=0;" parent="1" source="AfXIsOWokxRNo5Easndm-52" target="AfXIsOWokxRNo5Easndm-46" edge="1">
          <mxGeometry relative="1" as="geometry">
            <mxPoint x="440" y="513" as="sourcePoint" />
          </mxGeometry>
        </mxCell>
        <mxCell id="AfXIsOWokxRNo5Easndm-45" style="edgeStyle=orthogonalEdgeStyle;rounded=0;orthogonalLoop=1;jettySize=auto;html=1;exitX=0;exitY=0.75;exitDx=0;exitDy=0;entryX=1;entryY=0.75;entryDx=0;entryDy=0;dashed=1;endArrow=open;endFill=0;" parent="1" source="AfXIsOWokxRNo5Easndm-46" edge="1">
          <mxGeometry relative="1" as="geometry">
            <mxPoint x="440" y="578" as="targetPoint" />
          </mxGeometry>
        </mxCell>
        <mxCell id="AfXIsOWokxRNo5Easndm-46" value="" style="rounded=0;whiteSpace=wrap;html=1;" parent="1" vertex="1">
          <mxGeometry x="550" y="480" width="20" height="130" as="geometry" />
        </mxCell>
        <mxCell id="AfXIsOWokxRNo5Easndm-48" value="reenvoyer information" style="text;html=1;align=center;verticalAlign=middle;whiteSpace=wrap;rounded=0;" parent="1" vertex="1">
          <mxGeometry x="450" y="540" width="100" height="80" as="geometry" />
        </mxCell>
        <mxCell id="AfXIsOWokxRNo5Easndm-49" value="" style="rounded=0;whiteSpace=wrap;html=1;" parent="1" vertex="1">
          <mxGeometry x="420" y="620" width="20" height="20" as="geometry" />
        </mxCell>
        <mxCell id="AfXIsOWokxRNo5Easndm-50" value="" style="rounded=0;whiteSpace=wrap;html=1;" parent="1" vertex="1">
          <mxGeometry x="320" y="620" width="20" height="20" as="geometry" />
        </mxCell>
        <mxCell id="AfXIsOWokxRNo5Easndm-51" value="afficher locations" style="text;html=1;align=center;verticalAlign=middle;whiteSpace=wrap;rounded=0;" parent="1" vertex="1">
          <mxGeometry x="340" y="580" width="80" height="60" as="geometry" />
        </mxCell>
        <mxCell id="AfXIsOWokxRNo5Easndm-53" value="" style="endArrow=none;dashed=1;html=1;rounded=0;" parent="1" target="AfXIsOWokxRNo5Easndm-52" edge="1">
          <mxGeometry width="50" height="50" relative="1" as="geometry">
            <mxPoint x="430" y="1161.5999755859375" as="sourcePoint" />
            <mxPoint x="430" y="390" as="targetPoint" />
          </mxGeometry>
        </mxCell>
        <mxCell id="AfXIsOWokxRNo5Easndm-52" value="" style="rounded=0;whiteSpace=wrap;html=1;" parent="1" vertex="1">
          <mxGeometry x="420" y="480" width="20" height="130" as="geometry" />
        </mxCell>
        <mxCell id="AfXIsOWokxRNo5Easndm-54" style="edgeStyle=orthogonalEdgeStyle;rounded=0;orthogonalLoop=1;jettySize=auto;html=1;exitX=0;exitY=0.25;exitDx=0;exitDy=0;entryX=1;entryY=0.25;entryDx=0;entryDy=0;dashed=1;endArrow=open;endFill=0;" parent="1" edge="1">
          <mxGeometry relative="1" as="geometry">
            <mxPoint x="420" y="629.5" as="sourcePoint" />
            <mxPoint x="340" y="629.5" as="targetPoint" />
          </mxGeometry>
        </mxCell>
        <mxCell id="AfXIsOWokxRNo5Easndm-56" value="Mettre Ã  jour information" style="text;html=1;align=center;verticalAlign=middle;whiteSpace=wrap;rounded=0;" parent="1" vertex="1">
          <mxGeometry x="440" y="460" width="100" height="80" as="geometry" />
        </mxCell>
        <mxCell id="tXcfFQMDFY63Ugxnc1xT-1" value="ALT&amp;nbsp;" style="shape=umlFrame;whiteSpace=wrap;html=1;pointerEvents=0;width=56;height=30;" vertex="1" parent="1">
          <mxGeometry x="60" y="710" width="600" height="170" as="geometry" />
        </mxCell>
        <mxCell id="tXcfFQMDFY63Ugxnc1xT-2" value="[Retour]" style="text;html=1;align=center;verticalAlign=middle;whiteSpace=wrap;rounded=0;" vertex="1" parent="1">
          <mxGeometry x="190" y="710" width="60" height="30" as="geometry" />
        </mxCell>
        <mxCell id="tXcfFQMDFY63Ugxnc1xT-3" style="edgeStyle=orthogonalEdgeStyle;rounded=0;orthogonalLoop=1;jettySize=auto;html=1;exitX=1;exitY=0.25;exitDx=0;exitDy=0;entryX=0;entryY=0.25;entryDx=0;entryDy=0;" edge="1" parent="1" source="tXcfFQMDFY63Ugxnc1xT-4" target="tXcfFQMDFY63Ugxnc1xT-6">
          <mxGeometry relative="1" as="geometry" />
        </mxCell>
        <mxCell id="tXcfFQMDFY63Ugxnc1xT-4" value="" style="rounded=0;whiteSpace=wrap;html=1;" vertex="1" parent="1">
          <mxGeometry x="320" y="730" width="20" height="110" as="geometry" />
        </mxCell>
        <mxCell id="tXcfFQMDFY63Ugxnc1xT-5" style="edgeStyle=orthogonalEdgeStyle;rounded=0;orthogonalLoop=1;jettySize=auto;html=1;exitX=0;exitY=0.75;exitDx=0;exitDy=0;entryX=1;entryY=0.75;entryDx=0;entryDy=0;dashed=1;endArrow=open;endFill=0;" edge="1" parent="1" source="tXcfFQMDFY63Ugxnc1xT-6" target="tXcfFQMDFY63Ugxnc1xT-4">
          <mxGeometry relative="1" as="geometry" />
        </mxCell>
        <mxCell id="tXcfFQMDFY63Ugxnc1xT-6" value="" style="rounded=0;whiteSpace=wrap;html=1;" vertex="1" parent="1">
          <mxGeometry x="420" y="730" width="20" height="110" as="geometry" />
        </mxCell>
        <mxCell id="tXcfFQMDFY63Ugxnc1xT-7" value="Envoyer commande" style="text;html=1;align=center;verticalAlign=middle;whiteSpace=wrap;rounded=0;" vertex="1" parent="1">
          <mxGeometry x="345" y="720" width="60" height="30" as="geometry" />
        </mxCell>
        <mxCell id="tXcfFQMDFY63Ugxnc1xT-8" value="Afficher page d&#39;acceuil" style="text;html=1;align=center;verticalAlign=middle;whiteSpace=wrap;rounded=0;" vertex="1" parent="1">
          <mxGeometry x="330" y="780" width="100" height="30" as="geometry" />
        </mxCell>
        <mxCell id="tXcfFQMDFY63Ugxnc1xT-9" value="ALT&amp;nbsp;" style="shape=umlFrame;whiteSpace=wrap;html=1;pointerEvents=0;width=56;height=30;" vertex="1" parent="1">
          <mxGeometry x="60" y="920" width="600" height="110" as="geometry" />
        </mxCell>
        <mxCell id="tXcfFQMDFY63Ugxnc1xT-10" value="[Quitter]" style="text;html=1;align=center;verticalAlign=middle;whiteSpace=wrap;rounded=0;" vertex="1" parent="1">
          <mxGeometry x="172" y="920" width="90" height="30" as="geometry" />
        </mxCell>
        <mxCell id="tXcfFQMDFY63Ugxnc1xT-11" value="" style="shape=umlDestroy;whiteSpace=wrap;html=1;strokeWidth=3;targetShapes=umlLifeline;" vertex="1" parent="1">
          <mxGeometry x="159.5" y="960" width="30" height="30" as="geometry" />
        </mxCell>
      </root>
    </mxGraphModel>
  </diagram>
</mxfile>
